<?xml version="1.0" standalone="no"?>
<!DOCTYPE svg PUBLIC "-//W3C//DTD SVG 20010904//EN"
 "http://www.w3.org/TR/2001/REC-SVG-20010904/DTD/svg10.dtd">
<svg version="1.0" xmlns="http://www.w3.org/2000/svg"
 width="1024.000000pt" height="1024.000000pt" viewBox="0 0 1024.000000 1024.000000"
 preserveAspectRatio="xMidYMid meet">
<metadata>
Created by potrace 1.14, written by Peter Selinger 2001-2017
</metadata>
<g transform="translate(0.000000,1024.000000) scale(0.100000,-0.100000)"
fill="#000000" stroke="none">
<path d="M0 5120 l0 -5120 5120 0 5120 0 0 5120 0 5120 -5120 0 -5120 0 0
-5120z m5501 3742 c272 -72 521 -198 741 -375 149 -119 275 -262 330 -372 39
-78 64 -283 44 -356 -12 -41 -39 -99 -46 -99 -4 0 -10 19 -13 41 -21 157 -206
343 -447 450 -98 44 -300 99 -450 124 -52 8 -109 17 -127 20 l-32 6 19 43 c64
143 39 284 -70 393 -70 71 -136 97 -245 98 -79 0 -97 -3 -149 -29 -122 -60
-187 -157 -194 -291 -4 -76 3 -113 42 -205 5 -13 -14 -18 -110 -33 -208 -32
-472 -118 -619 -200 -180 -102 -303 -248 -321 -381 -4 -25 -10 -46 -14 -46
-16 0 -49 86 -60 152 -28 183 43 348 240 552 242 251 604 449 960 525 79 17
121 20 250 17 133 -3 171 -8 271 -34z m-266 -156 c19 -8 41 -28 50 -47 22 -41
10 -85 -45 -179 -50 -85 -53 -104 -19 -108 20 -2 34 6 57 33 37 45 66 45 70
-2 6 -65 -88 -133 -165 -118 -41 7 -83 45 -83 74 0 11 25 69 55 128 30 59 55
116 55 125 0 31 -21 30 -60 -1 -35 -28 -40 -29 -54 -15 -9 8 -16 21 -16 28 0
22 41 68 74 82 39 17 40 17 81 0z m-1677 -206 c43 -26 46 -78 6 -109 -35 -27
-59 -26 -89 4 -41 40 -29 98 25 118 23 8 23 8 58 -13z m3335 9 c30 -16 37 -28
37 -65 0 -36 -32 -74 -64 -74 -34 0 -66 35 -66 74 0 37 25 64 68 75 2 1 13 -4
25 -10z m-4661 -61 c56 -17 132 -88 165 -156 25 -50 28 -68 28 -147 -1 -103
-19 -150 -79 -203 -43 -37 -92 -47 -238 -47 -115 0 -151 12 -107 36 50 26 130
93 142 118 10 22 19 26 64 29 44 3 54 0 65 -17 17 -27 22 -26 36 4 19 41 14
106 -12 160 -24 52 -88 118 -126 130 -19 6 -21 12 -16 44 3 20 6 42 6 49 0 15
22 15 72 0z m5997 -19 c17 -49 14 -57 -26 -78 -47 -24 -118 -97 -132 -134 -14
-36 -14 -91 0 -140 l10 -38 34 30 c39 34 89 48 110 31 8 -6 15 -30 17 -52 2
-24 9 -44 18 -48 64 -30 88 -44 109 -61 43 -35 15 -44 -142 -44 -174 0 -196 9
-233 90 -84 183 -37 364 114 442 82 42 107 43 121 2z m-4850 -25 c12 -15 21
-34 21 -44 0 -10 -9 -29 -21 -44 -40 -50 -119 -21 -119 44 0 65 79 94 119 44z
m3728 4 c47 -44 16 -118 -49 -118 -42 0 -68 25 -68 67 0 65 69 96 117 51z
m-5013 -77 c81 -85 12 -268 -127 -335 -78 -37 -98 -40 -127 -13 -61 54 -76
105 -39 131 18 12 26 12 64 -1 39 -13 47 -13 73 1 66 34 94 104 68 167 -13 32
-13 38 0 57 21 30 55 27 88 -7z m6291 9 c16 -17 17 -27 8 -64 -20 -90 35 -170
112 -163 22 2 47 7 56 11 9 4 24 0 37 -11 20 -16 21 -22 11 -57 -6 -22 -24
-53 -40 -69 -33 -33 -61 -31 -139 8 -97 50 -159 146 -160 248 0 51 4 62 29 88
34 34 61 37 86 9z m-5503 -161 c51 -17 213 -92 227 -105 7 -6 -38 -37 -74 -51
-51 -20 -126 -15 -206 13 -60 21 -84 25 -130 20 l-56 -7 -7 56 c-3 31 -4 60
-1 66 20 32 162 37 247 8z m4809 9 c76 -25 110 -66 124 -145 l7 -43 -51 26
c-75 39 -124 41 -220 9 -102 -35 -180 -32 -244 11 l-41 27 60 30 c165 85 284
113 365 85z m-2096 -62 c350 -56 554 -139 680 -279 62 -68 71 -90 22 -53 -44
34 -203 108 -298 139 -351 116 -842 146 -1242 77 -296 -52 -496 -122 -677
-239 l-25 -16 22 30 c29 41 107 113 167 155 133 90 412 169 716 200 121 12
527 4 635 -14z m2249 -223 c9 -26 16 -68 16 -94 0 -40 6 -55 31 -84 26 -29 38
-35 73 -35 38 0 43 -4 76 -52 43 -63 88 -96 206 -153 103 -50 149 -94 193
-185 22 -47 26 -68 26 -150 0 -100 -19 -190 -40 -190 -7 0 -47 32 -89 71 -56
52 -84 88 -111 141 -32 64 -35 79 -35 153 0 78 -1 82 -25 93 -39 18 -109 14
-186 -9 -88 -27 -195 -24 -253 7 -52 27 -54 38 -9 52 94 29 139 81 109 127 -9
14 -25 25 -36 25 -11 0 -48 -27 -84 -60 l-64 -61 -13 38 c-27 83 -9 218 40
295 26 41 121 117 148 118 6 0 18 -21 27 -47z m-5215 18 c57 -29 108 -92 128
-158 18 -59 26 -243 11 -259 -4 -4 -34 15 -65 43 -82 71 -100 79 -124 57 -32
-29 -24 -68 23 -108 23 -20 56 -39 75 -42 40 -7 34 -20 -21 -45 -59 -27 -156
-25 -274 6 -88 23 -102 24 -142 12 l-45 -13 -6 -104 c-4 -80 -11 -115 -27
-146 -27 -52 -106 -139 -165 -181 l-45 -32 -15 57 c-26 96 -28 143 -12 206 34
128 113 230 219 281 100 48 148 85 196 150 l41 55 53 -6 54 -7 27 41 c23 35
26 47 20 79 -10 46 -7 69 11 106 17 32 32 34 83 8z m991 -67 c0 -92 21 -179
63 -258 33 -63 160 -206 182 -206 22 0 123 64 211 134 142 113 272 173 502
230 188 48 334 67 557 73 503 15 972 -96 1178 -277 26 -23 46 -45 43 -48 -3
-3 -11 0 -18 6 -19 15 -282 95 -451 136 -526 129 -911 124 -1393 -17 -98 -29
-254 -89 -254 -98 0 -11 130 -49 170 -49 22 0 40 -2 40 -5 0 -3 -15 -19 -32
-35 -48 -43 -202 -116 -285 -134 -149 -33 -340 -14 -528 53 -50 18 -97 35
-107 38 -14 4 -15 0 -7 -39 13 -56 68 -184 111 -255 44 -75 136 -167 196 -197
44 -23 51 -30 61 -73 7 -26 30 -80 51 -119 l38 -72 -30 -22 c-46 -34 -98 -123
-114 -198 -15 -73 -11 -270 8 -372 22 -120 119 -245 235 -305 32 -16 61 -34
65 -40 4 -5 8 -41 8 -80 1 -114 18 -267 35 -315 9 -25 34 -73 56 -107 l41 -62
-22 -163 c-12 -90 -24 -166 -28 -170 -7 -6 -264 -141 -310 -163 -27 -12 -21
11 -82 -305 -28 -146 -57 -296 -64 -334 l-14 -68 94 -45 c73 -34 94 -49 90
-61 -3 -10 -8 -34 -12 -54 -3 -21 -10 -38 -15 -38 -12 0 -238 114 -262 132
-19 14 -26 -30 73 482 23 115 39 210 37 212 -3 4 -79 -20 -131 -42 -16 -6 -18
-4 -12 12 39 93 26 136 -63 212 -112 96 -299 236 -351 263 l-49 25 57 28 c132
65 240 163 292 266 67 134 65 236 -9 585 -78 365 -93 429 -105 438 -18 12
-907 6 -911 -7 -8 -27 -109 -483 -132 -591 -45 -221 -42 -315 17 -433 56 -111
187 -229 310 -278 42 -17 53 -34 22 -34 -10 0 -54 -17 -98 -39 -95 -46 -418
-238 -422 -251 -5 -15 29 -160 37 -160 12 0 127 76 226 149 161 120 155 118
416 157 191 30 239 34 269 25 29 -9 214 -146 330 -244 31 -27 32 -28 15 -47
-10 -11 -26 -22 -37 -26 -20 -6 -97 33 -178 90 -25 18 -62 42 -82 54 l-37 23
-81 -41 -82 -41 -151 19 c-143 19 -154 19 -182 3 -37 -21 -44 -59 -16 -85 14
-13 84 -31 218 -58 109 -21 211 -47 227 -56 46 -27 76 -96 83 -187 l6 -77 -56
37 c-52 35 -69 39 -233 67 -176 29 -177 29 -203 10 -56 -41 -29 -91 61 -116
29 -8 101 -25 160 -39 116 -27 154 -49 186 -105 29 -54 35 -96 22 -152 -13
-55 -20 -59 -58 -31 -37 25 -75 36 -232 66 l-135 25 -92 -92 -92 -92 35 -66
c54 -97 193 -303 270 -400 91 -113 297 -323 414 -423 200 -169 541 -369 819
-481 325 -131 685 -211 1049 -231 69 -4 112 -2 112 4 0 5 -37 61 -82 125 -275
383 -478 806 -588 1220 -80 302 -124 709 -118 1089 l3 198 106 -84 c253 -201
657 -491 714 -513 7 -3 26 3 42 14 15 11 100 67 188 124 143 94 412 296 553
415 44 37 53 42 58 28 10 -24 -3 -546 -16 -690 -26 -293 -73 -532 -150 -764
-112 -344 -297 -699 -536 -1033 -46 -64 -84 -121 -84 -127 0 -14 60 -14 215 0
721 63 1419 374 1913 853 215 209 391 439 540 708 58 106 159 326 151 332 -2
1 -121 40 -264 85 -337 108 -812 265 -992 330 -112 39 -143 47 -143 35 0 -8
25 -146 55 -307 30 -161 57 -308 60 -327 l6 -35 -139 -73 -140 -72 -7 37 c-3
21 -9 47 -11 58 -4 17 9 27 85 65 50 24 91 49 91 55 0 12 -47 259 -96 500
l-36 180 -169 90 c-93 50 -169 92 -169 95 0 3 -9 66 -20 140 -27 185 -27 189
20 262 56 85 78 167 90 333 5 77 10 147 10 155 0 8 26 29 57 45 81 42 176 138
212 215 41 85 53 175 49 343 -3 129 -6 147 -30 200 -15 32 -49 78 -77 105
l-50 48 19 40 c59 120 86 377 60 591 l-12 107 28 19 c16 11 55 47 87 79 98 98
159 266 143 390 l-7 50 58 -33 c202 -113 454 -310 648 -504 764 -763 1091
-1819 881 -2835 -51 -245 -120 -459 -215 -670 -395 -873 -1161 -1500 -2131
-1746 -460 -116 -946 -131 -1433 -43 -624 112 -1235 417 -1658 827 -491 475
-771 990 -908 1667 -52 255 -70 645 -42 895 77 685 351 1289 813 1790 203 220
386 377 621 534 88 59 186 115 200 116 4 0 7 -34 7 -76z m-1785 -51 c110 -73
185 -82 274 -33 55 31 94 37 121 20 13 -8 12 -13 -4 -42 -54 -95 -108 -123
-236 -123 -114 0 -151 16 -241 104 -63 61 -70 81 -43 133 l16 30 26 -25 c15
-13 54 -42 87 -64z m6854 -5 c15 -25 14 -29 -15 -65 -19 -24 -58 -52 -108 -77
-70 -36 -84 -40 -154 -39 -101 0 -166 27 -227 95 -48 53 -55 72 -29 82 29 11
55 6 127 -25 93 -41 144 -38 258 19 96 47 127 49 148 10z m-3341 -358 c52 -10
128 -37 121 -44 -2 -2 -67 -11 -144 -20 -308 -36 -381 -57 -777 -215 -393
-157 -570 -182 -712 -103 -43 25 -132 119 -122 130 2 1 38 -6 81 -17 170 -45
303 -49 455 -15 100 22 178 50 385 136 286 119 420 155 576 157 48 1 109 -3
137 -9z m758 -86 c17 -42 19 -233 2 -425 l-11 -138 48 -53 48 -53 -7 -160 c-4
-88 -11 -239 -16 -335 -5 -96 -17 -308 -25 -470 -9 -162 -21 -313 -26 -335 -6
-22 -25 -62 -44 -90 -77 -116 -494 -522 -574 -558 -41 -19 -69 -22 -257 -25
-240 -4 -298 3 -371 51 -72 47 -527 503 -552 555 -33 66 -39 117 -61 547 -11
220 -25 470 -30 555 -6 85 -10 181 -10 214 0 58 1 59 55 111 53 52 55 55 55
107 l0 54 73 23 c39 13 146 55 237 93 376 160 474 180 862 176 248 -3 267 -2
333 19 91 29 155 70 202 131 21 27 42 47 47 44 4 -2 14 -19 22 -38z m-4211
-749 c30 -30 31 -54 4 -89 -42 -53 -122 -23 -122 46 0 62 73 89 118 43z m6695
-2 c25 -32 21 -79 -7 -100 -24 -18 -73 -16 -95 4 -23 20 -24 80 -1 105 25 28
77 24 103 -9z m-4524 -160 c24 -36 30 -85 40 -375 5 -135 4 -178 -5 -178 -26
0 -118 105 -136 155 -26 72 -34 329 -11 373 36 70 75 79 112 25z m2355 27 c49
-27 65 -114 50 -282 -8 -91 -16 -128 -35 -166 -23 -46 -107 -132 -129 -132 -6
0 -7 31 -3 83 3 45 8 150 11 232 8 193 12 218 40 249 26 29 37 31 66 16z
m2253 -251 c52 -41 21 -129 -44 -129 -69 0 -97 80 -44 128 31 27 54 28 88 1z
m-6876 -19 c46 -43 15 -120 -48 -120 -35 0 -80 38 -80 68 0 11 9 31 21 46 26
33 75 35 107 6z m1476 12 c7 -12 102 -451 121 -562 20 -115 14 -176 -25 -259
-45 -95 -110 -152 -255 -221 -122 -59 -145 -78 -159 -132 -6 -25 -11 -28 -51
-28 -35 0 -45 4 -45 16 0 9 -9 31 -20 49 -16 25 -47 46 -136 89 -253 123 -322
263 -264 537 24 114 109 487 115 507 3 9 84 12 359 12 195 0 357 -4 360 -8z
m-1549 -377 c28 -27 31 -45 14 -78 -16 -29 -28 -37 -64 -37 -16 0 -35 4 -41 8
-15 10 -34 47 -34 67 0 25 46 65 75 65 14 0 37 -11 50 -25z m7035 5 c24 -24
26 -67 4 -98 -11 -16 -25 -22 -51 -22 -47 0 -73 24 -73 66 0 64 76 98 120 54z
m-7076 -360 c44 -43 11 -120 -50 -120 -58 0 -96 69 -61 112 32 40 74 43 111 8z
m7110 -1 c47 -37 29 -113 -30 -125 -71 -14 -115 80 -58 125 15 12 34 21 44 21
10 0 29 -9 44 -21z m6 -421 c43 -47 15 -118 -47 -118 -65 0 -96 69 -51 117 27
29 71 30 98 1z m-7107 -110 c26 -30 22 -73 -9 -97 -15 -12 -34 -21 -44 -21
-29 0 -70 39 -70 66 0 74 76 106 123 52z m7064 -300 c28 -27 30 -67 3 -96 -43
-46 -120 -15 -120 48 0 62 71 92 117 48z m-7027 -58 c43 -43 12 -113 -50 -113
-60 0 -90 61 -54 111 20 29 76 30 104 2z m1597 -172 c-44 -23 -44 -23 -67 21
l-20 40 60 -22 59 -22 -32 -17z m202 -131 l-12 -56 -68 -21 c-38 -12 -78 -29
-88 -38 -19 -16 -41 -92 -27 -92 4 0 36 7 72 16 36 9 67 15 69 12 2 -2 -1 -25
-8 -52 l-12 -48 -111 -37 -111 -37 27 106 c15 58 37 137 50 176 l23 71 101 30
c56 16 102 29 103 28 2 -1 -2 -27 -8 -58z m4358 -321 c3 -3 0 -28 -7 -56 -15
-62 17 -67 -320 45 -630 209 -659 219 -664 240 -2 11 -8 41 -11 66 l-7 47 502
-169 c276 -92 505 -170 507 -173z m782 238 c27 -35 26 -59 -4 -89 -46 -47
-115 -19 -115 47 0 67 78 94 119 42z m-6866 5 c68 -31 46 -129 -30 -129 -67 0
-96 68 -48 115 27 28 42 30 78 14z m1666 -484 c73 -23 159 -75 168 -100 2 -7
-109 -9 -323 -7 l-326 3 19 32 c51 90 288 127 462 72z m4998 -120 c20 -93 11
-173 -26 -250 -39 -80 -70 -105 -170 -145 -109 -43 -169 -84 -206 -140 -23
-36 -40 -49 -75 -60 -42 -14 -48 -21 -86 -95 -67 -127 -90 -254 -70 -385 l8
-56 -38 -25 c-94 -62 -181 -65 -344 -14 -61 19 -120 35 -131 35 -30 0 -22 25
16 54 79 61 148 70 260 35 83 -25 119 -16 169 44 l34 41 -37 43 c-22 24 -46
66 -56 99 -35 112 0 198 134 327 101 98 148 123 256 137 120 16 110 5 110 122
0 136 23 189 132 297 l76 76 15 -35 c8 -19 21 -66 29 -105z m-6461 93 c68 -56
133 -139 155 -197 18 -47 20 -70 16 -138 -4 -47 -2 -85 3 -88 5 -3 49 -13 97
-21 111 -20 167 -50 258 -140 94 -93 135 -172 135 -258 0 -72 -32 -151 -76
-185 -33 -26 -34 -25 -52 72 -6 31 -30 100 -54 153 -44 97 -62 116 -120 129
-16 3 -28 11 -28 18 0 7 -11 28 -24 47 -25 37 -60 57 -191 111 -109 44 -163
98 -194 197 -19 58 -23 87 -19 145 5 71 35 187 49 187 4 0 24 -14 45 -32z
m1967 -294 c22 -20 35 -40 30 -44 -32 -30 -503 -287 -503 -275 0 18 87 130
130 167 51 44 277 188 295 188 6 -1 27 -17 48 -36z m2658 -56 c74 -50 166
-116 204 -147 39 -30 72 -56 74 -57 7 -6 -164 -214 -301 -365 -74 -82 -287
-280 -309 -288 -6 -2 14 28 43 67 29 38 79 107 110 153 31 46 109 158 172 249
64 91 116 170 116 175 0 6 -64 54 -143 108 -78 54 -153 106 -166 116 l-24 18
34 31 c19 17 39 32 45 32 6 0 71 -41 145 -92z m-4598 -252 c25 -7 59 -24 74
-36 31 -23 93 -98 93 -111 0 -4 -20 -11 -45 -14 -36 -6 -54 -2 -97 19 -36 18
-68 26 -104 26 -54 0 -173 -31 -211 -56 -20 -13 -24 -11 -42 15 -28 39 -27 44
14 80 89 78 214 108 318 77z m6481 -1 c76 -13 206 -95 206 -131 0 -7 -14 -21
-32 -32 -31 -20 -33 -20 -67 -2 -54 27 -139 50 -188 50 -23 0 -72 -11 -109
-25 -54 -20 -75 -24 -112 -17 l-45 7 35 45 c42 56 111 99 174 110 49 8 63 7
138 -5z m-2141 -9 c47 -19 69 -49 74 -100 13 -116 -117 -182 -203 -103 -65 59
-51 161 26 199 42 22 61 22 103 4z m-4078 -249 c48 -27 84 -87 91 -154 5 -37
-1 -69 -25 -142 -17 -51 -31 -106 -31 -122 0 -33 -43 -70 -107 -93 l-41 -14
-5 56 c-5 54 -3 59 29 93 19 19 43 59 54 87 22 58 27 152 8 152 -6 0 -32 -22
-57 -48 -33 -34 -54 -70 -75 -124 -15 -42 -35 -86 -43 -97 -16 -24 -51 -27
-78 -7 -17 13 -18 18 -7 67 13 53 12 56 -20 119 -38 74 -62 85 -141 65 -59
-15 -81 -3 -79 45 2 66 89 119 172 105 57 -10 115 -58 146 -122 l27 -55 23 43
c27 52 29 78 9 105 -22 29 -18 40 18 52 52 16 89 13 132 -11z m5930 9 c39 -16
43 -27 19 -47 -12 -10 -14 -25 -8 -76 6 -62 6 -63 -17 -63 -13 0 -47 13 -76
29 -29 16 -54 26 -57 23 -14 -13 -4 -110 14 -150 11 -24 45 -68 75 -98 47 -46
54 -57 45 -73 -5 -11 -10 -32 -10 -47 0 -25 -2 -26 -35 -21 -53 9 -105 44
-105 71 0 12 -19 53 -42 92 -36 59 -43 79 -46 136 -3 55 0 76 21 121 44 96
136 139 222 103z m343 -42 c26 -18 52 -65 52 -93 0 -32 -35 -49 -86 -43 -42 4
-48 2 -85 -34 -47 -46 -63 -90 -54 -151 5 -35 3 -49 -11 -64 -23 -26 -46 -24
-78 6 -59 54 -17 220 76 300 l42 35 -40 0 c-37 1 -38 1 -19 16 56 44 160 59
203 28z m-5888 -259 c17 -4 55 2 95 14 76 24 113 26 169 10 46 -13 129 -85
106 -92 -8 -3 -67 -22 -130 -43 -146 -48 -222 -50 -303 -10 -30 14 -62 35 -72
46 -18 20 -16 36 11 127 2 9 18 4 50 -16 25 -17 59 -33 74 -36z m39 -904 c17
-53 33 -109 37 -124 9 -38 17 -26 44 68 12 44 29 97 37 118 14 35 18 37 58 37
23 0 47 -6 53 -12 5 -7 25 -60 43 -118 18 -58 36 -109 39 -113 4 -4 17 27 29
70 37 131 54 168 80 171 45 7 71 -6 71 -36 0 -43 -116 -385 -136 -399 -10 -7
-30 -13 -46 -13 -33 0 -50 30 -92 157 -15 46 -31 85 -36 88 -4 3 -25 -48 -47
-112 -34 -105 -41 -117 -66 -126 -59 -19 -69 -5 -137 197 -34 102 -60 198 -58
213 2 22 9 29 33 33 56 11 63 4 94 -99z m722 72 c5 -13 9 -105 9 -204 0 -166
-1 -180 -20 -199 -25 -25 -52 -26 -74 -1 -14 16 -16 42 -14 217 3 197 3 199
26 210 32 16 62 6 73 -23z m268 27 c4 0 50 -52 102 -116 l94 -116 5 104 c3 56
9 109 13 116 11 17 63 15 81 -4 13 -13 16 -46 16 -209 l0 -195 -25 -16 c-15
-10 -34 -14 -47 -10 -13 4 -61 54 -108 111 -47 58 -88 105 -92 105 -5 0 -8
-42 -8 -94 0 -73 -4 -98 -16 -110 -20 -21 -53 -20 -76 1 -16 15 -18 35 -18
214 0 194 0 198 22 214 13 8 29 13 36 10 8 -3 17 -5 21 -5z m1330 -1 c87 -18
129 -80 76 -115 -23 -15 -28 -15 -69 1 -57 22 -89 14 -134 -31 -32 -32 -34
-38 -29 -81 4 -36 12 -54 36 -75 45 -40 75 -45 127 -20 l43 21 28 -23 c24 -21
26 -27 18 -52 -25 -72 -164 -92 -252 -38 -132 82 -152 246 -42 356 42 42 72
56 141 67 4 1 29 -4 57 -10z m2377 -32 c22 -23 66 -77 99 -120 l60 -78 5 99
c3 63 10 105 19 115 16 20 64 22 79 4 7 -7 12 -91 14 -210 3 -187 2 -199 -16
-213 -44 -32 -57 -23 -181 125 l-70 83 -6 -97 c-5 -80 -9 -100 -24 -111 -26
-20 -52 -17 -75 6 -19 19 -20 31 -18 217 l3 197 25 13 c37 19 44 17 86 -30z
m-2941 9 c35 -53 -13 -81 -128 -74 l-62 3 -3 -37 -3 -38 50 0 c70 0 81 -6 81
-46 0 -41 -21 -54 -84 -54 l-46 0 0 -40 0 -40 95 0 c86 0 95 -2 106 -21 8 -16
8 -28 0 -45 -10 -24 -13 -24 -150 -24 -117 0 -141 3 -152 17 -11 13 -13 56
-11 207 2 112 8 196 14 204 7 8 49 12 144 12 130 0 134 -1 149 -24z m1048 -96
c73 -173 107 -280 96 -301 -23 -44 -81 -29 -105 27 l-14 34 -81 0 -80 0 -15
-35 c-20 -48 -54 -64 -89 -41 -14 9 -25 23 -25 31 0 17 135 358 154 387 9 15
21 18 61 16 l49 -3 49 -115z m454 109 c49 -18 81 -58 94 -115 11 -48 10 -56
-12 -101 -30 -61 -88 -93 -166 -93 l-53 0 0 -45 c0 -71 -49 -107 -92 -68 -16
15 -18 35 -18 213 0 139 3 199 12 208 15 15 195 16 235 1z m509 -14 c15 -23
15 -27 0 -50 -14 -21 -24 -25 -65 -25 -46 0 -49 -1 -55 -31 -3 -17 -6 -89 -6
-160 0 -103 -3 -131 -16 -143 -19 -20 -44 -20 -70 -2 -18 14 -19 26 -16 175
l4 161 -54 0 c-60 0 -78 12 -78 50 0 47 13 50 182 50 157 0 158 0 174 -25z
m313 11 c19 -23 151 -358 151 -383 0 -26 -40 -56 -67 -51 -10 2 -28 22 -41 46
-23 42 -24 42 -82 42 -68 0 -110 -13 -110 -35 0 -21 -36 -55 -59 -55 -32 0
-54 29 -48 65 6 36 121 329 143 363 11 17 24 22 58 22 25 0 48 -6 55 -14z
m339 2 c9 -9 12 -69 12 -209 0 -193 -1 -198 -22 -213 -28 -20 -43 -20 -62 0
-14 13 -16 47 -16 213 0 211 2 221 50 221 14 0 31 -5 38 -12z"/>
<path d="M8284 7340 c8 -41 46 -123 54 -116 6 7 -37 127 -50 141 -7 7 -9 -1
-4 -25z"/>
<path d="M2088 7354 c-5 -4 -8 -28 -8 -53 1 -36 3 -42 11 -28 11 19 8 93 -3
81z"/>
<path d="M7190 7240 c0 -29 2 -30 45 -30 43 0 45 1 45 30 0 29 -2 30 -45 30
-43 0 -45 -1 -45 -30z"/>
<path d="M3098 7180 c4 -30 5 -31 56 -28 47 3 51 5 54 31 3 27 3 27 -56 27
l-59 0 5 -30z"/>
<path d="M7184 7055 c-19 -30 -11 -60 22 -82 23 -14 26 -14 44 2 11 10 22 26
26 37 8 28 -22 68 -51 68 -15 0 -31 -10 -41 -25z"/>
<path d="M6830 6941 c0 -28 1 -28 55 -30 55 -1 55 -1 55 29 0 30 -1 30 -55 30
-54 0 -55 -1 -55 -29z"/>
<path d="M3136 6910 c-3 -8 -13 -37 -22 -65 -24 -73 -56 -110 -130 -146 l-65
-32 36 -13 c72 -24 112 -60 144 -128 17 -35 31 -69 31 -75 0 -27 18 -5 48 59
36 77 83 121 154 142 45 13 48 24 9 33 -16 3 -50 19 -76 36 -45 29 -59 51
-112 179 -8 19 -12 21 -17 10z"/>
<path d="M7197 6782 c-32 -36 -48 -94 -53 -195 -2 -55 -5 -101 -7 -103 -1 -1
-12 -5 -24 -8 -20 -6 -23 -4 -23 19 0 24 -3 26 -32 23 -30 -3 -33 -6 -36 -40
-2 -29 -8 -38 -22 -38 -10 0 -25 -3 -34 -6 -12 -5 -16 0 -16 20 0 21 -5 26
-24 26 -19 0 -25 -7 -30 -34 -6 -32 -11 -36 -61 -51 l-55 -16 0 -49 0 -50 184
0 183 0 7 -46 c11 -82 8 -99 -24 -129 -20 -19 -30 -39 -30 -58 0 -28 2 -29 32
-23 17 3 43 12 57 19 23 11 32 11 66 -5 44 -19 85 -23 85 -9 0 24 -23 65 -46
84 -24 19 -25 24 -19 76 11 99 -7 91 196 91 l180 0 -3 53 -3 52 -45 14 c-52
16 -61 27 -53 58 4 20 1 23 -26 23 -27 0 -31 -4 -31 -26 0 -20 -4 -25 -16 -20
-9 3 -24 6 -34 6 -14 0 -20 9 -22 38 -3 34 -6 37 -35 40 -30 3 -33 1 -33 -22
0 -29 0 -29 -33 -17 -24 9 -25 14 -29 118 -3 92 -7 115 -28 152 -29 52 -41 58
-63 33z"/>
<path d="M6722 5845 c-14 -36 -64 -85 -88 -85 -26 0 -14 -18 24 -37 24 -12 45
-33 61 -62 l24 -43 24 44 c17 31 38 51 66 65 l42 21 -37 16 c-37 16 -70 53
-82 94 -10 31 -20 28 -34 -13z"/>
<path d="M7457 5823 c-4 -3 -7 -16 -7 -29 0 -22 -22 -34 -67 -34 -16 0 -25 -8
-29 -25 -3 -14 -11 -25 -16 -25 -6 0 -39 -14 -75 -31 -60 -29 -66 -30 -82 -15
-17 16 -22 14 -72 -19 -29 -19 -58 -35 -62 -35 -5 0 -6 -11 -3 -25 5 -18 -1
-36 -19 -63 -37 -54 -85 -185 -85 -231 0 -39 -1 -40 -37 -43 l-38 -3 -3 -81
-3 -81 39 -7 39 -6 6 -59 c5 -65 56 -188 88 -217 14 -13 18 -26 14 -48 -5 -28
-1 -34 45 -68 53 -40 69 -45 86 -28 7 7 31 1 75 -20 35 -16 69 -30 75 -30 7 0
19 -11 28 -24 11 -18 27 -26 53 -28 32 -3 38 -7 45 -35 8 -32 10 -33 63 -33
54 0 55 1 55 29 0 31 14 41 60 41 19 0 33 8 44 25 9 14 23 25 30 25 8 0 40 14
72 30 39 21 61 27 68 20 16 -16 32 -12 89 24 49 32 53 37 49 66 -3 22 1 38 16
53 42 46 92 178 92 243 0 30 3 33 40 39 l40 7 0 79 0 79 -38 6 c-37 6 -38 7
-49 65 -13 67 -64 183 -95 216 -15 16 -18 29 -14 50 6 26 2 31 -48 61 -48 28
-58 31 -75 20 -18 -11 -30 -8 -84 20 -35 17 -69 32 -76 32 -6 0 -11 9 -11 19
0 25 -9 30 -62 39 -37 6 -43 11 -46 35 -3 26 -6 27 -56 27 -29 0 -56 -3 -59
-7z m204 -282 c220 -84 329 -346 231 -555 -105 -224 -364 -309 -585 -193 -63
33 -137 107 -168 169 -79 154 -50 344 72 473 56 59 143 109 219 125 62 13 170
4 231 -19z"/>
<path d="M7431 5455 c-68 -19 -109 -44 -156 -96 -58 -64 -80 -121 -80 -209 0
-94 33 -169 102 -229 156 -138 403 -91 501 94 23 43 27 63 27 135 0 68 -4 94
-23 131 -68 138 -228 213 -371 174z m60 -244 c33 -33 38 -75 14 -120 -16 -33
-33 -41 -79 -41 -77 0 -118 109 -61 165 35 36 88 34 126 -4z"/>
<path d="M3695 5158 c-13 -29 -33 -50 -59 -65 l-39 -21 39 -20 c24 -12 48 -36
62 -61 13 -23 25 -41 27 -41 3 0 14 18 26 41 15 30 31 45 60 57 37 14 52 32
27 32 -22 0 -78 52 -93 86 -8 19 -18 34 -22 34 -5 0 -17 -19 -28 -42z"/>
<path d="M4641 4298 c-31 -50 -72 -187 -78 -257 -3 -43 1 -90 11 -136 20 -86
66 -206 81 -211 23 -9 392 153 425 186 19 19 21 20 46 3 34 -22 110 -22 152
-1 32 16 34 16 52 -2 22 -22 143 -80 312 -150 l118 -49 20 47 c90 202 92 353
8 535 -17 37 -32 67 -33 67 -24 0 -312 -113 -398 -157 -51 -25 -51 -25 -99 -8
-45 16 -51 16 -100 0 l-53 -16 -95 44 c-88 42 -258 109 -323 128 -25 7 -30 4
-46 -23z"/>
<path d="M5144 3541 c-59 -36 -66 -129 -15 -175 28 -25 83 -31 119 -12 41 21
62 53 62 96 0 42 -20 75 -60 95 -39 20 -69 19 -106 -4z"/>
<path d="M5144 2891 c-38 -23 -58 -70 -50 -114 12 -62 78 -98 141 -77 93 31
103 150 15 195 -39 20 -69 19 -106 -4z"/>
<path d="M4435 6644 c-49 -20 -98 -38 -108 -41 -13 -4 -17 -14 -15 -37 3 -35
-12 -30 188 -61 58 -10 110 -20 117 -24 7 -3 -44 -22 -113 -40 -68 -19 -124
-40 -124 -46 0 -35 48 -44 113 -21 l38 14 16 -39 c53 -133 227 -125 275 13 9
26 10 27 37 10 15 -9 55 -37 89 -61 l62 -44 0 -131 0 -131 49 -27 c27 -16 54
-28 60 -28 8 0 11 82 11 278 l0 279 -277 86 c-153 48 -289 87 -303 87 -14 -1
-65 -17 -115 -36z"/>
<path d="M5685 6629 c-88 -28 -207 -65 -265 -82 -58 -17 -107 -32 -109 -34 -3
-2 6 -15 20 -29 22 -23 24 -35 27 -135 2 -60 5 -109 8 -109 2 0 48 32 104 71
95 67 120 76 120 43 0 -25 77 -92 114 -99 68 -13 146 35 162 98 6 26 10 28 38
23 91 -19 111 -19 130 3 11 12 17 23 15 25 -2 3 -65 20 -139 39 -87 22 -128
36 -115 40 30 9 181 35 248 43 41 4 60 12 67 25 17 31 11 45 -22 56 -18 6 -71
25 -118 42 -47 17 -94 31 -105 30 -11 0 -92 -23 -180 -50z"/>
<path d="M4943 5754 c-5 -11 -8 -43 -7 -71 0 -41 5 -58 24 -78 13 -14 22 -26
19 -28 -2 -2 -29 -9 -60 -16 -52 -11 -74 -23 -203 -116 -57 -41 -89 -51 -125
-39 -64 23 -57 104 12 133 l41 17 -24 17 c-32 22 -88 21 -126 -2 -41 -25 -64
-77 -64 -144 0 -45 6 -63 33 -103 120 -180 529 -219 705 -68 l42 36 42 -36
c155 -133 494 -125 653 16 97 84 108 222 24 293 -38 32 -105 34 -140 6 -23
-19 -23 -20 -4 -26 46 -15 64 -29 76 -57 10 -25 9 -33 -8 -56 -38 -51 -84 -43
-179 32 -84 65 -131 91 -195 107 l-49 13 21 22 c25 27 35 97 20 137 l-11 28
-25 -29 c-13 -16 -52 -44 -86 -62 -54 -28 -73 -33 -133 -34 -84 0 -159 29
-225 89 -37 34 -42 35 -48 19z"/>
<path d="M5082 5114 c-12 -8 -22 -24 -22 -34 0 -59 40 -80 152 -80 102 0 148
22 148 69 0 53 -19 61 -143 61 -86 0 -118 -4 -135 -16z"/>
<path d="M2659 6003 l-67 -4 -36 -189 c-20 -103 -39 -215 -42 -247 -15 -151
101 -278 324 -353 61 -20 66 -20 120 -5 74 22 207 89 259 131 59 48 96 129 97
208 0 33 -17 150 -39 259 l-39 197 -183 0 c-101 0 -186 0 -190 -1 -5 0 -22
-115 -40 -256 -18 -140 -37 -261 -43 -268 -17 -20 -47 -24 -69 -8 -27 19 -27
40 5 293 32 259 31 243 19 244 -5 1 -40 0 -76 -1z"/>
<path d="M8321 3435 c-21 -56 -29 -118 -12 -99 10 11 44 145 37 151 -2 2 -13
-21 -25 -52z"/>
<path d="M2036 3485 c4 -16 17 -57 30 -90 17 -46 23 -54 23 -33 1 15 -8 51
-20 80 -24 63 -44 88 -33 43z"/>
<path d="M6294 2985 c-7 -29 10 -55 36 -55 26 0 43 26 36 55 -5 20 -13 25 -36
25 -23 0 -31 -5 -36 -25z"/>
<path d="M5403 1553 c-6 -21 -15 -46 -18 -55 -6 -15 -1 -18 34 -18 26 0 41 4
41 13 0 13 -37 97 -42 97 -2 0 -8 -17 -15 -37z"/>
<path d="M5839 1636 c-2 -2 -2 -29 -1 -60 l4 -56 44 0 c68 0 103 47 74 101 -9
15 -22 19 -64 19 -29 0 -55 -2 -57 -4z"/>
<path d="M6727 1543 c-23 -66 -22 -69 23 -70 22 -1 40 -1 40 1 0 9 -34 102
-39 109 -4 4 -15 -14 -24 -40z"/>
</g>
</svg>
